<?xml version="1.0" standalone="no"?>
<!DOCTYPE svg PUBLIC "-//W3C//DTD SVG 20010904//EN"
 "http://www.w3.org/TR/2001/REC-SVG-20010904/DTD/svg10.dtd">
<svg version="1.0" xmlns="http://www.w3.org/2000/svg"
 width="1599.000000pt" height="1599.000000pt" viewBox="0 0 1599.000000 1599.000000"
 preserveAspectRatio="xMidYMid meet">

<g transform="translate(0.000000,1599.000000) scale(0.100000,-0.100000)"
fill="#000000" stroke="none">
<path d="M5060 15434 c-1090 -90 -1988 -559 -2641 -1380 -565 -710 -896 -1609
-996 -2709 -29 -318 -20 -932 18 -1300 161 -1556 879 -2694 2052 -3255 382
-183 779 -295 1288 -364 207 -28 424 -39 694 -33 388 9 624 47 945 153 318
106 602 263 975 539 157 116 228 157 295 171 66 13 132 4 162 -23 17 -15 18
-135 18 -2407 0 -2535 1 -2476 -45 -2611 -65 -190 -224 -371 -410 -465 -125
-63 -197 -80 -372 -87 l-153 -6 0 -64 0 -63 1395 0 1395 0 0 63 0 64 -152 6
c-170 7 -238 21 -345 72 -104 49 -179 103 -256 184 -98 105 -148 187 -194 323
l-28 83 -3 3844 c-1 2798 1 3847 9 3852 6 3 52 12 102 18 51 7 119 19 152 26
52 13 246 46 803 136 255 41 349 50 552 50 299 1 508 -26 749 -96 499 -146
912 -476 1144 -916 212 -401 309 -946 277 -1545 -18 -330 -62 -567 -155 -834
-67 -193 -195 -447 -282 -560 -226 -294 -445 -455 -762 -560 -284 -95 -643
-125 -886 -75 -186 38 -431 139 -588 243 -194 127 -359 358 -428 600 -8 28
-18 42 -29 42 -19 0 -82 -20 -92 -29 -3 -3 0 -46 8 -96 58 -357 198 -625 431
-823 223 -191 629 -348 1010 -392 113 -13 435 -13 580 0 231 21 509 90 731
184 309 130 643 394 847 671 137 184 292 457 355 620 119 312 175 546 206 860
19 201 14 632 -10 830 -101 823 -447 1410 -1082 1832 -354 235 -833 391 -1344
438 -294 27 -759 16 -1035 -24 -287 -42 -548 -84 -1010 -160 -575 -96 -835
-137 -1110 -177 -179 -25 -183 -26 -625 -19 -453 6 -955 20 -1157 31 l-113 7
0 -121 0 -120 63 -5 c362 -30 465 -41 561 -62 314 -68 470 -196 550 -451 57
-184 59 -223 63 -1154 4 -940 5 -937 -55 -1064 -42 -88 -99 -155 -204 -239
-267 -213 -587 -350 -983 -423 -121 -22 -541 -31 -730 -14 -1269 109 -2037
819 -2375 2195 -63 255 -92 416 -134 745 -56 435 -71 706 -71 1315 0 570 7
704 61 1110 109 829 354 1557 701 2083 65 98 203 284 237 317 6 7 41 45 78 86
83 92 242 234 351 312 263 188 540 308 867 374 129 26 148 27 425 27 269 -1
301 -3 440 -27 469 -84 844 -236 1201 -489 134 -95 192 -144 309 -262 404
-407 581 -844 756 -1863 l22 -133 139 0 138 0 0 328 c1 808 24 2001 46 2390
l6 112 -140 0 -140 0 -6 -57 c-26 -222 -71 -422 -118 -532 -43 -97 -117 -161
-187 -161 -43 0 -131 41 -199 93 -154 117 -454 315 -620 411 -372 213 -715
329 -1157 392 -104 15 -667 28 -785 18z"/>
<path d="M5225 12511 c-114 -29 -249 -168 -341 -351 -14 -28 -27 -50 -29 -48
-2 2 -30 39 -62 83 -201 270 -397 351 -570 234 -54 -37 -136 -147 -170 -229
-25 -60 -27 -76 -27 -195 0 -120 3 -137 32 -223 68 -200 188 -401 451 -762
260 -356 291 -399 366 -510 261 -384 385 -688 385 -946 0 -72 -22 -229 -34
-241 -2 -3 -9 19 -15 49 -21 97 -99 231 -172 293 -197 166 -422 245 -699 245
-395 0 -729 -179 -848 -456 -30 -71 -42 -224 -22 -302 50 -202 241 -382 494
-468 117 -40 230 -57 376 -57 215 0 392 44 551 137 190 112 354 329 425 561
24 80 27 107 28 240 1 185 -24 301 -110 512 -102 247 -216 424 -685 1068 -235
321 -349 520 -404 699 -24 77 -27 102 -23 186 3 84 8 105 35 161 37 74 109
154 158 175 89 37 198 -2 307 -110 73 -73 159 -184 207 -268 18 -32 36 -58 40
-58 4 0 13 19 20 43 36 122 132 288 218 378 102 107 199 125 328 59 290 -147
272 -511 -53 -1072 -28 -49 -49 -88 -47 -88 2 0 26 33 52 73 122 187 226 401
265 547 29 107 35 258 14 340 -31 120 -110 210 -238 270 -70 33 -150 45 -203
31z"/>
<path d="M9158 9716 c-60 -16 -92 -38 -128 -87 -58 -81 -64 -230 -14 -377 55
-160 212 -431 378 -652 l34 -45 -29 -73 c-47 -119 -97 -294 -126 -441 -35
-185 -37 -405 -4 -561 71 -336 267 -596 528 -702 70 -28 91 -32 208 -36 111
-4 144 -1 215 17 88 22 227 83 293 128 20 14 39 24 41 22 15 -20 72 -131 97
-190 28 -68 45 -171 32 -192 -2 -4 -18 6 -35 23 -76 80 -198 80 -273 1 -25
-28 -30 -41 -33 -99 -2 -54 1 -73 17 -99 52 -83 160 -110 251 -64 214 110 237
288 78 592 l-50 97 46 42 c59 55 138 172 166 247 34 91 46 198 32 287 -42 273
-246 512 -524 616 -125 46 -310 44 -435 -6 -64 -26 -67 -26 -80 -8 -8 11 -74
102 -146 204 -72 102 -136 188 -141 192 -6 4 3 34 22 75 56 123 121 300 142
385 41 171 18 339 -65 463 -80 121 -226 220 -359 244 -72 13 -78 13 -138 -3z
m108 -166 c104 -59 194 -195 242 -363 34 -122 35 -271 4 -400 -31 -125 -32
-126 -72 -70 -252 357 -350 559 -350 723 0 79 1 83 31 111 40 38 79 37 145 -1z
m387 -1308 l117 -163 -36 -31 c-83 -73 -140 -202 -131 -296 16 -151 130 -282
281 -319 59 -14 77 -15 130 -4 33 7 83 25 109 42 27 16 50 29 52 29 7 0 217
-322 222 -339 4 -18 -11 -29 -107 -77 -265 -131 -505 -96 -708 104 -211 207
-282 494 -209 842 24 114 95 349 119 394 10 18 10 18 28 0 9 -11 69 -92 133
-182z m681 -181 c129 -63 231 -183 282 -331 21 -59 25 -90 25 -179 0 -138 -27
-214 -109 -303 -33 -36 -44 -35 -67 5 -10 17 -63 99 -117 182 -98 148 -99 150
-84 176 34 58 11 96 -53 85 -37 -6 -40 -4 -66 35 -15 23 -68 98 -117 168 -50
69 -93 133 -95 142 -3 11 8 20 39 32 63 23 82 26 194 23 91 -1 106 -4 168 -35z
m-409 -198 c50 -70 112 -158 139 -197 l48 -70 -26 -23 c-14 -12 -43 -27 -64
-32 -113 -32 -217 12 -280 117 -36 62 -38 155 -4 219 23 43 79 113 91 113 3 0
47 -57 96 -127z"/>
</g>
</svg>
